<?xml version="1.0" standalone="no"?>
<!DOCTYPE svg PUBLIC "-//W3C//DTD SVG 20010904//EN"
 "http://www.w3.org/TR/2001/REC-SVG-20010904/DTD/svg10.dtd">
<svg version="1.0" xmlns="http://www.w3.org/2000/svg"
 width="161.000000pt" height="50.000000pt" viewBox="0 0 161.000000 50.000000"
 preserveAspectRatio="xMidYMid meet">

<g transform="translate(0.000000,50.000000) scale(0.100000,-0.100000)"
fill="#FFF" stroke="none">
<path d="M141 371 c-11 -7 -10 -13 4 -34 13 -20 15 -38 9 -89 -4 -34 -11 -68
-16 -75 -15 -18 0 -33 33 -33 32 0 49 24 30 43 -14 14 -15 67 0 67 5 0 19 -22
31 -50 11 -27 24 -50 27 -50 4 0 17 23 28 50 12 28 26 50 32 50 15 0 14 -53 0
-67 -23 -23 -2 -43 46 -43 48 0 69 20 46 43 -14 14 -14 140 0 154 19 19 2 43
-28 43 -37 0 -47 -8 -72 -57 -12 -24 -26 -43 -31 -43 -5 0 -17 15 -26 33 -9
17 -23 40 -32 50 -16 18 -58 22 -81 8z"/>
<path d="M1405 366 c-29 -21 -7 -40 35 -31 22 5 30 12 28 23 -4 22 -38 26 -63
8z"/>
<path d="M480 297 c-28 -14 -40 -47 -17 -47 8 0 20 7 27 15 17 21 40 19 40 -4
0 -13 -10 -20 -32 -25 -41 -8 -58 -23 -58 -52 0 -33 40 -52 76 -35 20 9 30 9
40 0 11 -9 21 -9 39 -1 25 12 33 36 15 47 -5 3 -10 24 -10 45 0 61 -58 89
-120 57z m54 -85 c2 -4 1 -14 -4 -22 -7 -11 -12 -12 -21 -3 -6 6 -8 16 -5 22
8 13 23 14 30 3z"/>
<path d="M668 298 c-29 -10 -35 -22 -18 -33 14 -8 13 -68 -1 -82 -7 -7 -9 -19
-6 -27 7 -18 82 -22 107 -6 13 9 13 12 -2 24 -11 8 -18 26 -18 45 0 35 2 36
29 19 25 -15 51 4 51 38 0 31 -35 42 -61 18 -17 -16 -19 -16 -19 -1 0 19 -21
21 -62 5z"/>
<path d="M870 297 c-28 -14 -40 -47 -17 -47 8 0 20 7 27 15 17 21 40 19 40 -4
0 -13 -10 -20 -32 -25 -41 -8 -58 -23 -58 -52 0 -33 40 -52 76 -35 20 9 30 9
40 0 11 -9 21 -9 39 -1 25 12 33 36 15 47 -5 3 -10 24 -10 45 0 61 -58 89
-120 57z m54 -85 c2 -4 1 -14 -4 -22 -7 -11 -12 -12 -21 -3 -6 6 -8 16 -5 22
8 13 23 14 30 3z"/>
<path d="M1042 298 c-7 -7 -12 -23 -12 -37 0 -23 1 -23 18 -8 17 16 42 23 42
12 0 -3 -13 -27 -30 -53 -16 -27 -30 -54 -30 -61 0 -7 24 -11 70 -11 64 0 71
2 86 26 20 29 6 55 -16 29 -12 -15 -45 -22 -38 -7 2 4 15 30 30 58 15 28 24
54 21 58 -11 11 -129 6 -141 -6z"/>
<path d="M1222 298 c-7 -7 -12 -23 -12 -37 0 -23 1 -23 18 -8 17 16 42 23 42
12 0 -3 -13 -27 -30 -53 -16 -27 -30 -54 -30 -61 0 -7 24 -11 70 -11 64 0 71
2 86 26 20 29 6 55 -16 29 -12 -15 -45 -22 -38 -7 2 4 15 30 30 58 15 28 24
54 21 58 -11 11 -129 6 -141 -6z"/>
<path d="M1428 300 c-45 -13 -48 -18 -30 -50 16 -28 16 -32 1 -59 -21 -36 -9
-51 41 -51 46 0 70 14 52 32 -7 7 -12 38 -12 75 0 67 -2 68 -52 53z"/>
</g>
</svg>
